# xmcd CD database file
#
# Track frame offsets:
#	183
#	16218
#	28818
#	40750
#	50493
#	70563
#	86013
#	94868
#	109705
#	125315
#	138860
#	150238
#	166830
#	180265
#	193783
#	207088
#
# Disc length: 2931 seconds
#
# Revision: 2
# Processed by: cddbd v1.4PL0 Copyright (c) Steve Scherf et al.
# Submitted via: CDex 1.50Beta5
#
DISCID=c00b7110
DTITLE=Tina Turner - Good hearted woman
DYEAR=1993
DGENRE=Rock
TTITLE0=Good Hearted Woman
TTITLE1=Stand By Your Man
TTITLE2=Soul Deep
TTITLE3=Ain't Nobody's Business
TTITLE4=Lovin' Him Was Easier
TTITLE5=We Had It All
TTITLE6=Funky Mule
TTITLE7=It Sho Ain't Me
TTITLE8=If This Is Our Last Time
TTITLE9=It's Crazy Baby
TTITLE10=You're So Fine
TTITLE11=Lay It Down
TTITLE12=Am I A Fool In Love
TTITLE13=Freedom To Stay
TTITLE14=If It's All Right With You
TTITLE15=You Ain't Woman Enough To Take My Man
EXTD=YEAR: 1993
EXTT0=
EXTT1=
EXTT2=
EXTT3=
EXTT4=
EXTT5=
EXTT6=
EXTT7=
EXTT8=
EXTT9=
EXTT10=
EXTT11=
EXTT12=
EXTT13=
EXTT14=
EXTT15=
PLAYORDER=
